# Blender v3.2.1 OBJ File: ''
# www.blender.org
o Cylinder
v 0.000000 -1.000000 -1.000000
v 0.000000 1.000000 -1.000000
v 0.258819 -1.000000 -0.965926
v 0.258819 1.000000 -0.965926
v 0.500000 -1.000000 -0.866025
v 0.500000 1.000000 -0.866025
v 0.707107 -1.000000 -0.707107
v 0.707107 1.000000 -0.707107
v 0.866025 -1.000000 -0.500000
v 0.866025 1.000000 -0.500000
v 0.965926 -1.000000 -0.258819
v 0.965926 1.000000 -0.258819
v 1.000000 -1.000000 0.000000
v 1.000000 1.000000 0.000000
v 0.965926 -1.000000 0.258819
v 0.965926 1.000000 0.258819
v 0.866025 -1.000000 0.500000
v 0.866025 1.000000 0.500000
v 0.707107 -1.000000 0.707107
v 0.707107 1.000000 0.707107
v 0.500000 -1.000000 0.866025
v 0.500000 1.000000 0.866025
v 0.258819 -1.000000 0.965926
v 0.258819 1.000000 0.965926
v -0.000000 -1.000000 1.000000
v -0.000000 1.000000 1.000000
v -0.258819 -1.000000 0.965926
v -0.258819 1.000000 0.965926
v -0.500000 -1.000000 0.866025
v -0.500000 1.000000 0.866025
v -0.707107 -1.000000 0.707107
v -0.707107 1.000000 0.707107
v -0.866025 -1.000000 0.500000
v -0.866025 1.000000 0.500000
v -0.965926 -1.000000 0.258819
v -0.965926 1.000000 0.258819
v -1.000000 -1.000000 -0.000000
v -1.000000 1.000000 -0.000000
v -0.965926 -1.000000 -0.258819
v -0.965926 1.000000 -0.258819
v -0.866025 -1.000000 -0.500000
v -0.866025 1.000000 -0.500000
v -0.707107 -1.000000 -0.707107
v -0.707107 1.000000 -0.707107
v -0.500000 -1.000000 -0.866025
v -0.500000 1.000000 -0.866025
v -0.258819 -1.000000 -0.965926
v -0.258819 1.000000 -0.965926
vn 0.0000 0.0000 -1.0000
vn 0.2588 0.0000 -0.9659
vn 0.5000 0.0000 -0.8660
vn 0.7071 0.0000 -0.7071
vn 0.8660 0.0000 -0.5000
vn 0.9659 0.0000 -0.2588
vn 1.0000 0.0000 0.0000
vn 0.9659 0.0000 0.2588
vn 0.8660 0.0000 0.5000
vn 0.7071 0.0000 0.7071
vn 0.5000 0.0000 0.8660
vn 0.2588 0.0000 0.9659
vn -0.0000 0.0000 1.0000
vn -0.2588 0.0000 0.9659
vn -0.5000 0.0000 0.8660
vn -0.7071 0.0000 0.7071
vn -0.8660 0.0000 0.5000
vn -0.9659 0.0000 0.2588
vn -1.0000 0.0000 -0.0000
vn -0.9659 0.0000 -0.2588
vn -0.8660 0.0000 -0.5000
vn -0.7071 0.0000 -0.7071
vn -0.5000 0.0000 -0.8660
vn 0.0000 1.0000 0.0000
vn -0.2588 0.0000 -0.9659
vn 0.0000 -1.0000 -0.0000
s 1
f 2//1 3//2 1//1
f 4//2 5//3 3//2
f 6//3 7//4 5//3
f 8//4 9//5 7//4
f 10//5 11//6 9//5
f 12//6 13//7 11//6
f 14//7 15//8 13//7
f 16//8 17//9 15//8
f 18//9 19//10 17//9
f 20//10 21//11 19//10
f 22//11 23//12 21//11
f 24//12 25//13 23//12
f 26//13 27//14 25//13
f 28//14 29//15 27//14
f 30//15 31//16 29//15
f 32//16 33//17 31//16
f 34//17 35//18 33//17
f 36//18 37//19 35//18
f 38//19 39//20 37//19
f 40//20 41//21 39//20
f 42//21 43//22 41//21
f 44//22 45//23 43//22
f 38//24 22//24 6//24
f 46//23 47//25 45//23
f 48//25 1//1 47//25
f 31//26 39//26 47//26
f 2//1 4//2 3//2
f 4//2 6//3 5//3
f 6//3 8//4 7//4
f 8//4 10//5 9//5
f 10//5 12//6 11//6
f 12//6 14//7 13//7
f 14//7 16//8 15//8
f 16//8 18//9 17//9
f 18//9 20//10 19//10
f 20//10 22//11 21//11
f 22//11 24//12 23//12
f 24//12 26//13 25//13
f 26//13 28//14 27//14
f 28//14 30//15 29//15
f 30//15 32//16 31//16
f 32//16 34//17 33//17
f 34//17 36//18 35//18
f 36//18 38//19 37//19
f 38//19 40//20 39//20
f 40//20 42//21 41//21
f 42//21 44//22 43//22
f 44//22 46//23 45//23
f 6//24 4//24 2//24
f 2//24 48//24 6//24
f 48//24 46//24 6//24
f 46//24 44//24 42//24
f 42//24 40//24 38//24
f 38//24 36//24 34//24
f 34//24 32//24 30//24
f 30//24 28//24 26//24
f 26//24 24//24 22//24
f 22//24 20//24 18//24
f 18//24 16//24 22//24
f 16//24 14//24 22//24
f 14//24 12//24 10//24
f 10//24 8//24 6//24
f 46//24 42//24 6//24
f 42//24 38//24 6//24
f 38//24 34//24 30//24
f 30//24 26//24 22//24
f 14//24 10//24 6//24
f 38//24 30//24 22//24
f 22//24 14//24 6//24
f 46//23 48//25 47//25
f 48//25 2//1 1//1
f 47//26 1//26 3//26
f 3//26 5//26 7//26
f 7//26 9//26 11//26
f 11//26 13//26 15//26
f 15//26 17//26 19//26
f 19//26 21//26 23//26
f 23//26 25//26 27//26
f 27//26 29//26 31//26
f 31//26 33//26 35//26
f 35//26 37//26 31//26
f 37//26 39//26 31//26
f 39//26 41//26 43//26
f 43//26 45//26 39//26
f 45//26 47//26 39//26
f 47//26 3//26 15//26
f 3//26 7//26 15//26
f 7//26 11//26 15//26
f 15//26 19//26 23//26
f 23//26 27//26 31//26
f 15//26 23//26 47//26
f 23//26 31//26 47//26
