# Blender v3.2.1 OBJ File: 'water_volume.blend'
# www.blender.org
o Cube
v 10.008812 1.069864 -9.948641
v 10.008812 -1.003412 -9.948641
v 10.008812 0.861170 9.953964
v 10.008812 -1.003412 9.953964
v -10.020523 1.242676 -9.948641
v -10.020523 -1.003412 -9.948641
v -10.020523 1.167274 9.953964
v -10.020523 -1.003412 9.953964
v -10.020523 -1.003412 -7.816947
v -10.020523 -1.003412 -6.414450
v -10.020523 -1.003412 -3.807146
v -10.020523 -1.003412 -1.782709
v -10.020523 -1.003412 -0.085215
v -10.020523 -1.003412 1.811529
v -10.020523 -1.003412 3.990457
v -10.020523 -1.003412 5.773462
v -10.020523 -1.003412 8.177511
v 7.866136 -1.003412 -9.948641
v 5.806188 -1.003412 -9.948641
v 4.151105 -1.003412 -9.948641
v 2.022794 -1.003412 -9.948641
v -0.188212 -1.003412 -9.948641
v -1.989507 -1.003412 -9.948641
v -3.587559 -1.003412 -9.948641
v -5.795685 -1.003412 -9.948641
v -7.742715 -1.003412 -9.948641
v 8.019441 1.039953 9.953964
v 6.312368 0.927018 9.953964
v 3.605026 0.855073 9.953964
v 2.057424 1.046705 9.953964
v -0.155816 1.037993 9.953964
v -2.123375 1.125137 9.953964
v -3.850437 1.228482 9.953964
v -5.765979 1.283218 9.953964
v -8.006291 0.815808 9.953964
v 10.008812 0.955075 -8.055655
v 10.008812 1.080326 -5.957342
v 10.008812 0.984691 -4.329512
v 10.008812 1.121430 -1.803928
v 10.008812 0.790782 0.047489
v 10.008812 0.927260 2.355807
v 10.008812 0.660816 3.724827
v 10.008812 0.984551 5.555105
v 10.008812 1.091750 8.209569
v -8.204700 -1.003412 9.953964
v -5.885085 -1.003412 9.953964
v -3.934861 -1.003412 9.953964
v -2.111740 -1.003412 9.953964
v -0.091673 -1.003412 9.953964
v 2.170892 -1.003412 9.953964
v 3.886940 -1.003412 9.953964
v 5.928267 -1.003412 9.953964
v 8.353626 -1.003412 9.953964
v -10.020523 1.144073 8.319017
v -10.020523 1.038538 6.194314
v -10.020523 0.912278 3.984788
v -10.020523 1.020799 1.793627
v -10.020523 0.847309 0.157999
v -10.020523 1.291062 -1.967899
v -10.020523 0.705181 -4.405918
v -10.020523 1.060459 -5.756874
v -10.020523 1.167415 -8.357159
v -8.162676 1.132613 -9.948641
v -6.240063 1.055271 -9.948641
v -4.161300 1.223024 -9.948641
v -1.887777 0.880482 -9.948641
v -0.033036 0.977994 -9.948641
v 1.961336 1.069966 -9.948641
v 4.103005 0.817569 -9.948641
v 6.409355 0.908647 -9.948641
v 7.881128 0.968740 -9.948641
v 10.008812 -1.003412 7.863886
v 10.008812 -1.003412 6.081298
v 10.008812 -1.003412 4.430148
v 10.008812 -1.003412 2.392981
v 10.008812 -1.003412 -0.494051
v 10.008812 -1.003412 -2.237213
v 10.008812 -1.003412 -4.189805
v 10.008812 -1.003412 -6.123881
v 10.008812 -1.003412 -7.875781
v 0.037822 -1.003415 0.024170
v 7.875188 0.907718 -7.855916
v 7.984420 1.012194 -6.242443
v 8.168020 1.096708 -3.905960
v 7.743979 0.851496 -2.044228
v 7.849302 1.124785 -0.304026
v 7.741503 1.092453 2.291614
v 7.685348 1.373728 3.978227
v 7.854730 0.826753 5.707728
v 7.740141 1.032638 7.902282
v 6.520585 0.816838 -7.902184
v 6.540205 1.070853 -6.047748
v 6.533008 1.061753 -4.094229
v 6.526400 1.055244 -1.888939
v 6.355214 0.786489 -0.163026
v 6.224528 1.123113 2.121017
v 6.415287 1.164859 3.993764
v 6.314867 0.844933 6.039934
v 6.308828 0.891842 8.132215
v 3.969214 0.818061 -8.165194
v 3.907990 1.003921 -6.222396
v 3.778672 0.778001 -3.842213
v 4.094901 1.010973 -2.464063
v 3.875916 1.065098 -0.521645
v 3.747093 0.920852 1.575508
v 3.547668 0.829768 3.641876
v 3.858339 0.581815 5.619866
v 3.681017 0.897945 7.566963
v 1.800835 0.950876 -8.148157
v 1.714087 1.183597 -5.688312
v 2.075348 1.153721 -4.331578
v 1.976620 1.071614 -2.251208
v 2.038432 1.199522 -0.046462
v 1.850091 1.117392 1.667565
v 1.719641 0.778931 3.751919
v 1.897745 1.044688 5.519298
v 1.884267 1.009168 8.104196
v -0.237555 1.012088 -7.994414
v -0.028529 1.160635 -5.637089
v 0.080348 1.086984 -3.815408
v -0.275772 0.942007 -2.080945
v -0.000414 1.210622 0.056668
v -0.294013 1.120944 1.927697
v -0.280251 1.272027 3.970572
v -0.129115 0.999798 5.816962
v -0.168768 1.077172 8.057080
v -1.738572 1.017442 -8.344121
v -1.929573 0.657683 -6.194924
v -2.020948 1.144624 -4.180497
v -1.936306 0.847437 -1.846814
v -2.035480 1.102611 -0.187188
v -2.123697 0.874625 2.106181
v -2.012215 0.876807 3.860994
v -2.203799 1.074326 5.694389
v -2.163707 0.999894 7.751265
v -4.450912 1.301968 -8.016444
v -4.419476 1.188127 -5.785211
v -4.175384 1.262112 -4.032969
v -4.088243 1.350376 -1.873393
v -3.871818 1.371348 -0.050214
v -4.146775 1.207111 2.151411
v -4.064093 0.910343 3.841890
v -3.887145 1.030012 5.852451
v -3.905019 1.380977 8.261686
v -6.017135 1.175857 -7.706653
v -6.463444 1.143528 -6.120025
v -6.195758 1.141565 -3.668890
v -6.184586 1.312018 -1.773091
v -6.040130 1.196100 0.283273
v -5.798870 0.983285 1.959622
v -6.014497 1.311469 4.113290
v -6.044557 1.374752 6.323471
v -5.578074 1.155115 8.247499
v -7.919302 0.757349 -7.549846
v -7.801581 1.004606 -5.837889
v -8.034351 1.036168 -3.428997
v -7.912951 0.968791 -2.237969
v -8.052284 0.700909 0.123046
v -8.079361 1.079848 2.012825
v -7.958122 0.962224 4.464008
v -8.168105 1.027913 6.026177
v -7.992147 1.215798 7.823430
vn 0.0000 -1.0000 0.0000
vn -1.0000 -0.0000 0.0000
vn 0.0000 0.0000 -1.0000
vn 1.0000 0.0000 0.0000
vn 0.0000 0.0000 1.0000
vn 0.0321 0.9990 0.0299
vn -0.0020 0.9961 0.0878
vn -0.0307 0.9977 0.0606
vn 0.0077 0.9998 0.0171
vn -0.0238 0.9993 0.0272
vn 0.0887 0.9875 0.1305
vn -0.0485 0.9988 -0.0115
vn -0.0597 0.9978 -0.0292
vn 0.0435 0.9991 -0.0015
vn -0.0463 0.9987 -0.0192
vn 0.0438 0.9990 -0.0003
vn 0.0454 0.9983 -0.0355
vn 0.0298 0.9995 0.0109
vn 0.0633 0.9977 -0.0262
vn 0.0102 0.9998 -0.0172
vn 0.0680 0.9977 -0.0037
vn 0.0079 0.9992 -0.0400
vn 0.0623 0.9970 -0.0465
vn -0.0374 0.9991 0.0195
vn 0.0048 0.9987 0.0499
vn -0.0956 0.9918 -0.0850
vn -0.0416 0.9983 0.0419
vn -0.0303 0.9995 -0.0048
vn -0.0474 0.9970 0.0605
vn -0.0052 0.9989 -0.0470
vn -0.0343 0.9994 0.0048
vn 0.0260 0.9995 -0.0205
vn -0.0115 0.9998 0.0178
vn -0.0049 0.9995 0.0320
vn -0.0354 0.9994 0.0061
vn 0.1192 0.9905 0.0688
vn 0.0537 0.9969 -0.0575
vn 0.0705 0.9951 0.0690
vn 0.2104 0.9764 -0.0491
vn 0.0058 0.9995 0.0295
vn 0.2724 0.9475 -0.1676
vn -0.0498 0.9975 0.0510
vn -0.0236 0.9991 -0.0356
vn -0.0456 0.9988 -0.0181
vn -0.0175 0.9998 0.0137
vn 0.0082 0.9994 -0.0334
vn 0.0431 0.9990 0.0147
vn -0.0571 0.9975 0.0423
vn -0.0971 0.9926 0.0733
vn -0.0427 0.9950 0.0901
vn -0.0407 0.9988 0.0255
vn -0.0289 0.9989 0.0363
vn 0.0356 0.9989 -0.0310
vn 0.0297 0.9991 -0.0299
vn 0.0057 0.9981 -0.0611
vn -0.0189 0.9968 -0.0780
vn 0.0623 0.9976 0.0309
vn 0.0384 0.9988 0.0302
vn -0.0281 0.9969 -0.0738
vn -0.0143 0.9982 0.0590
vn 0.0483 0.9988 -0.0099
vn 0.0236 0.9983 0.0525
vn 0.0352 0.9994 0.0024
vn 0.0326 0.9992 -0.0220
vn 0.0775 0.9961 0.0431
vn 0.0268 0.9996 -0.0111
vn 0.0204 0.9994 -0.0286
vn 0.0451 0.9990 0.0041
vn 0.0439 0.9949 0.0906
vn 0.0920 0.9954 -0.0249
vn -0.0140 0.9998 -0.0119
vn -0.0294 0.9996 -0.0054
vn 0.0273 0.9992 -0.0288
vn -0.0090 0.9984 0.0556
vn -0.0285 0.9993 -0.0249
vn -0.0332 0.9988 0.0348
vn 0.0762 0.9967 -0.0268
vn 0.0045 0.9996 -0.0289
vn 0.0071 0.9978 0.0662
vn 0.0459 0.9980 0.0444
vn -0.0014 0.9985 -0.0549
vn -0.0778 0.9960 -0.0431
vn 0.0415 0.9983 -0.0406
vn -0.0452 0.9989 -0.0139
vn 0.0523 0.9984 -0.0196
vn -0.0950 0.9932 -0.0673
vn -0.0217 0.9998 -0.0027
vn 0.0280 0.9983 -0.0515
vn 0.0539 0.9945 -0.0899
vn 0.0266 0.9995 0.0192
vn 0.0541 0.9983 -0.0203
vn 0.0631 0.9977 -0.0259
vn 0.0790 0.9967 -0.0192
vn 0.0552 0.9976 0.0408
vn -0.0002 0.9977 0.0674
vn 0.0818 0.9965 -0.0144
vn 0.0637 0.9970 -0.0450
vn -0.0774 0.9969 0.0164
vn -0.1327 0.9910 -0.0152
vn -0.0700 0.9971 -0.0299
vn -0.0055 0.9991 -0.0410
vn -0.1230 0.9924 -0.0067
vn -0.1199 0.9915 0.0505
vn 0.0093 0.9906 0.1366
vn -0.0168 0.9991 0.0391
vn 0.0247 0.9979 -0.0604
vn -0.0135 0.9999 0.0017
vn -0.0918 0.9955 -0.0213
vn -0.0694 0.9964 -0.0478
vn -0.0059 0.9984 0.0556
vn -0.0736 0.9971 -0.0207
vn -0.0524 0.9968 -0.0597
vn -0.0973 0.9952 -0.0042
vn 0.0181 0.9998 0.0109
vn 0.0746 0.9895 0.1240
vn 0.1312 0.9884 0.0764
vn 0.0714 0.9912 0.1112
vn -0.0569 0.9983 -0.0106
vn -0.0369 0.9989 -0.0286
vn 0.0804 0.9965 0.0216
vn 0.0010 0.9983 -0.0580
vn -0.0252 0.9997 0.0040
vn -0.0170 0.9978 -0.0634
vn -0.0703 0.9949 -0.0724
vn 0.1719 0.9850 -0.0140
vn 0.0591 0.9971 0.0472
vn 0.0749 0.9960 0.0485
s off
f 81//1 4//1 53//1
f 81//1 8//1 17//1
f 81//1 46//1 45//1
f 81//1 47//1 46//1
f 81//1 48//1 47//1
f 81//1 49//1 48//1
f 81//1 50//1 49//1
f 81//1 51//1 50//1
f 81//1 52//1 51//1
f 81//1 53//1 52//1
f 6//1 81//1 9//1
f 9//1 81//1 10//1
f 10//1 81//1 11//1
f 11//1 81//1 12//1
f 12//1 81//1 13//1
f 13//1 81//1 14//1
f 14//1 81//1 15//1
f 15//1 81//1 16//1
f 16//1 81//1 17//1
f 26//1 25//1 81//1
f 25//1 24//1 81//1
f 24//1 23//1 81//1
f 23//1 22//1 81//1
f 22//1 21//1 81//1
f 21//1 20//1 81//1
f 20//1 19//1 81//1
f 19//1 18//1 81//1
f 2//1 81//1 18//1
f 81//1 80//1 79//1
f 81//1 79//1 78//1
f 81//1 78//1 77//1
f 81//1 77//1 76//1
f 81//1 76//1 75//1
f 81//1 75//1 74//1
f 81//1 74//1 73//1
f 81//1 73//1 72//1
f 56//2 16//2 55//2
f 56//2 14//2 15//2
f 58//2 12//2 13//2
f 59//2 11//2 12//2
f 60//2 10//2 11//2
f 62//2 10//2 61//2
f 62//2 6//2 9//2
f 63//3 6//3 5//3
f 64//3 26//3 63//3
f 66//3 22//3 23//3
f 67//3 21//3 22//3
f 69//3 21//3 68//3
f 69//3 19//3 20//3
f 36//4 79//4 80//4
f 38//4 79//4 37//4
f 38//4 77//4 78//4
f 39//4 76//4 77//4
f 40//4 75//4 76//4
f 42//4 75//4 41//4
f 43//4 74//4 42//4
f 44//4 73//4 43//4
f 44//4 4//4 72//4
f 3//5 53//5 4//5
f 28//5 53//5 27//5
f 29//5 52//5 28//5
f 29//5 50//5 51//5
f 30//5 49//5 50//5
f 31//5 48//5 49//5
f 32//5 47//5 48//5
f 34//5 47//5 33//5
f 35//5 46//5 34//5
f 35//5 8//5 45//5
f 54//2 8//2 7//2
f 55//2 16//2 17//2
f 56//2 15//2 16//2
f 58//2 59//2 12//2
f 59//2 60//2 11//2
f 60//2 61//2 10//2
f 62//2 9//2 10//2
f 62//2 5//2 6//2
f 63//3 26//3 6//3
f 64//3 25//3 26//3
f 66//3 23//3 24//3
f 66//3 67//3 22//3
f 67//3 68//3 21//3
f 69//3 20//3 21//3
f 36//4 80//4 2//4
f 36//4 37//4 79//4
f 38//4 78//4 79//4
f 39//4 40//4 76//4
f 40//4 41//4 75//4
f 42//4 74//4 75//4
f 43//4 73//4 74//4
f 44//4 72//4 73//4
f 44//4 3//4 4//4
f 3//5 27//5 53//5
f 28//5 52//5 53//5
f 29//5 51//5 52//5
f 29//5 30//5 50//5
f 30//5 31//5 49//5
f 31//5 32//5 48//5
f 32//5 33//5 47//5
f 34//5 46//5 47//5
f 35//5 45//5 46//5
f 35//5 7//5 8//5
f 54//2 17//2 8//2
f 81//1 72//1 4//1
f 81//1 45//1 8//1
f 6//1 26//1 81//1
f 2//1 80//1 81//1
s 1
f 54//6 35//7 162//8
f 44//9 27//10 3//11
f 99//12 27//10 90//13
f 99//12 29//14 28//15
f 117//16 29//14 108//17
f 117//16 31//18 30//19
f 126//20 32//21 31//18
f 144//22 32//21 135//23
f 153//24 33//25 144//22
f 153//24 35//7 34//26
f 71//27 36//28 1//29
f 36//28 83//30 37//31
f 83//30 38//32 37//31
f 84//33 39//34 38//32
f 39//34 86//35 40//36
f 40//36 87//37 41//38
f 87//37 42//39 41//38
f 88//40 43//41 42//39
f 43//42 90//13 44//9
f 71//27 91//43 82//44
f 91//43 83//30 82//44
f 83//30 93//45 84//33
f 93//45 85//46 84//33
f 94//47 86//35 85//46
f 95//48 87//37 86//35
f 87//37 97//49 88//40
f 97//49 89//50 88//40
f 98//51 90//13 89//50
f 70//52 100//53 91//43
f 91//43 101//54 92//55
f 101//54 93//45 92//55
f 93//45 103//56 94//47
f 94//47 104//57 95//48
f 95//48 105//58 96//59
f 96//59 106//60 97//49
f 97//49 107//61 98//51
f 98//51 108//17 99//12
f 68//62 100//53 69//63
f 109//64 101//54 100//53
f 101//54 111//65 102//66
f 102//66 112//67 103//56
f 112//67 104//57 103//56
f 113//68 105//58 104//57
f 114//69 106//60 105//58
f 106//60 116//70 107//61
f 116//70 108//17 107//61
f 67//71 109//64 68//62
f 118//72 110//73 109//64
f 110//73 120//74 111//65
f 120//74 112//67 111//65
f 112//67 122//75 113//68
f 122//75 114//69 113//68
f 123//76 115//77 114//69
f 124//78 116//70 115//77
f 125//79 117//16 116//70
f 67//71 127//80 118//72
f 118//72 128//81 119//82
f 119//82 129//83 120//74
f 129//83 121//84 120//74
f 121//84 131//85 122//75
f 131//85 123//76 122//75
f 123//76 133//86 124//78
f 124//78 134//87 125//79
f 125//79 135//23 126//20
f 65//88 127//80 66//89
f 136//90 128//81 127//80
f 137//91 129//83 128//81
f 129//83 139//92 130//93
f 139//92 131//85 130//93
f 140//94 132//95 131//85
f 132//95 142//96 133//86
f 142//96 134//87 133//86
f 143//97 135//23 134//87
f 64//98 136//90 65//88
f 145//99 137//91 136//90
f 137//91 147//100 138//101
f 147//100 139//92 138//101
f 148//102 140//94 139//92
f 149//103 141//104 140//94
f 150//105 142//96 141//104
f 151//106 143//97 142//96
f 143//97 153//24 144//22
f 64//98 154//107 145//99
f 154//107 146//108 145//99
f 155//109 147//100 146//108
f 147//100 157//110 148//102
f 148//102 158//111 149//103
f 149//103 159//112 150//105
f 159//112 151//106 150//105
f 160//113 152//114 151//106
f 152//114 162//8 153//24
f 63//115 62//116 154//107
f 154//107 61//117 155//109
f 155//109 60//118 156//119
f 156//119 59//120 157//110
f 59//120 158//111 157//110
f 158//111 57//121 159//112
f 159//112 56//122 160//113
f 160//113 55//123 161//124
f 55//123 162//8 161//124
f 55//2 17//2 54//2
f 58//2 14//2 57//2
f 65//3 25//3 64//3
f 66//3 24//3 65//3
f 70//3 18//3 19//3
f 71//3 2//3 18//3
f 36//4 2//4 1//4
f 54//6 7//125 35//7
f 44//9 90//13 27//10
f 99//12 28//15 27//10
f 99//12 108//17 29//14
f 117//16 30//19 29//14
f 117//16 126//20 31//18
f 126//20 135//23 32//21
f 144//22 33//25 32//21
f 153//24 34//26 33//25
f 153//24 162//8 35//7
f 71//27 82//44 36//28
f 36//28 82//44 83//30
f 83//30 84//33 38//32
f 84//33 85//46 39//34
f 39//34 85//46 86//35
f 40//36 86//35 87//37
f 87//37 88//40 42//39
f 88//40 89//50 43//42
f 43//42 89//50 90//13
f 71//27 70//52 91//43
f 91//43 92//55 83//30
f 83//30 92//55 93//45
f 93//45 94//47 85//46
f 94//47 95//48 86//35
f 95//48 96//59 87//37
f 87//37 96//59 97//49
f 97//49 98//51 89//50
f 98//51 99//12 90//13
f 70//52 69//63 100//53
f 91//43 100//53 101//54
f 101//54 102//66 93//45
f 93//45 102//66 103//56
f 94//47 103//56 104//57
f 95//48 104//57 105//58
f 96//59 105//58 106//60
f 97//49 106//60 107//61
f 98//51 107//61 108//17
f 68//62 109//64 100//53
f 109//64 110//73 101//54
f 101//54 110//73 111//65
f 102//66 111//65 112//67
f 112//67 113//68 104//57
f 113//68 114//69 105//58
f 114//69 115//77 106//60
f 106//60 115//77 116//70
f 116//70 117//16 108//17
f 67//71 118//72 109//64
f 118//72 119//82 110//73
f 110//73 119//82 120//74
f 120//74 121//84 112//67
f 112//67 121//84 122//75
f 122//75 123//76 114//69
f 123//76 124//78 115//77
f 124//78 125//79 116//70
f 125//79 126//20 117//16
f 67//71 66//89 127//80
f 118//72 127//80 128//81
f 119//82 128//81 129//83
f 129//83 130//93 121//84
f 121//84 130//93 131//85
f 131//85 132//95 123//76
f 123//76 132//95 133//86
f 124//78 133//86 134//87
f 125//79 134//87 135//23
f 65//88 136//90 127//80
f 136//90 137//91 128//81
f 137//91 138//101 129//83
f 129//83 138//101 139//92
f 139//92 140//94 131//85
f 140//94 141//104 132//95
f 132//95 141//104 142//96
f 142//96 143//97 134//87
f 143//97 144//22 135//23
f 64//98 145//99 136//90
f 145//99 146//108 137//91
f 137//91 146//108 147//100
f 147//100 148//102 139//92
f 148//102 149//103 140//94
f 149//103 150//105 141//104
f 150//105 151//106 142//96
f 151//106 152//114 143//97
f 143//97 152//114 153//24
f 64//98 63//115 154//107
f 154//107 155//109 146//108
f 155//109 156//119 147//100
f 147//100 156//119 157//110
f 148//102 157//110 158//111
f 149//103 158//111 159//112
f 159//112 160//113 151//106
f 160//113 161//124 152//114
f 152//114 161//124 162//8
f 63//115 5//126 62//116
f 154//107 62//116 61//117
f 155//109 61//117 60//118
f 156//119 60//118 59//120
f 59//120 58//127 158//111
f 158//111 58//127 57//121
f 159//112 57//121 56//122
f 160//113 56//122 55//123
f 55//123 54//6 162//8
f 56//2 57//2 14//2
f 58//2 13//2 14//2
f 65//3 24//3 25//3
f 69//3 70//3 19//3
f 70//3 71//3 18//3
f 71//3 1//3 2//3
f 38//4 39//4 77//4
